<?xml version="1.0" standalone="no"?>
<!DOCTYPE svg PUBLIC "-//W3C//DTD SVG 20010904//EN"
 "http://www.w3.org/TR/2001/REC-SVG-20010904/DTD/svg10.dtd">
<svg version="1.0" xmlns="http://www.w3.org/2000/svg"
 width="24.000000pt" height="23.080444pt" viewBox="0 0 24.000000 23.080444"
 preserveAspectRatio="xMidYMid meet">
<metadata>
Created by potrace 1.12, written by Peter Selinger 2001-2015
</metadata>
<g transform="translate(-2.000000,25.580444) scale(0.100000,-0.100000)"
fill="#000000" stroke="none">
<path d="M20 140 l0 -115 120 0 120 0 0 41 c0 32 -6 46 -30 69 -16 16 -32 26
-35 24 -3 -3 9 -18 25 -34 19 -19 30 -39 30 -57 l0 -28 -110 0 -110 0 0 100 0
100 38 0 c29 0 45 -7 65 -28 l27 -28 -45 -44 c-35 -34 -42 -47 -33 -57 9 -12
22 -3 69 43 45 44 56 61 48 71 -6 7 -16 10 -21 7 -5 -3 -22 6 -38 21 -21 21
-39 28 -74 29 l-46 2 0 -116z"/>
</g>
</svg>
