<?xml version="1.0" standalone="no"?>
<!DOCTYPE svg PUBLIC "-//W3C//DTD SVG 20010904//EN"
 "http://www.w3.org/TR/2001/REC-SVG-20010904/DTD/svg10.dtd">
<svg version="1.0" xmlns="http://www.w3.org/2000/svg"
 width="17.839088pt" height="17.961003pt" viewBox="0 0 17.839088 17.961003"
 preserveAspectRatio="xMidYMid meet">
<metadata>
Created by potrace 1.12, written by Peter Selinger 2001-2015
</metadata>
<g transform="translate(-1.146311,18.985400) scale(0.100000,-0.100000)"
fill="#000000" stroke="none">
<path d="M22 178 c-16 -16 -16 -140 0 -156 16 -16 140 -16 156 0 16 16 16 140
0 156 -16 16 -140 16 -156 0z m66 -50 c8 -8 15 -8 27 2 20 17 32 5 15 -15 -10
-12 -10 -18 0 -30 17 -20 5 -32 -15 -15 -12 10 -18 10 -30 0 -20 -17 -32 -5
-15 15 10 12 10 19 2 27 -14 14 -16 28 -4 28 4 0 13 -5 20 -12z"/>
</g>
</svg>
