<?xml version="1.0" standalone="no"?>
<!DOCTYPE svg PUBLIC "-//W3C//DTD SVG 20010904//EN"
 "http://www.w3.org/TR/2001/REC-SVG-20010904/DTD/svg10.dtd">
<svg version="1.0" xmlns="http://www.w3.org/2000/svg"
 width="31.816086pt" height="28.000000pt" viewBox="0 0 31.816086 28.000000"
 preserveAspectRatio="xMidYMid meet">
<metadata>
Created by potrace 1.12, written by Peter Selinger 2001-2015
</metadata>
<g transform="translate(0.000000,30.000000) scale(0.100000,-0.100000)"
fill="#000000" stroke="none">
<path d="M17 282 c-10 -10 -17 -25 -17 -34 0 -21 32 -48 57 -48 26 0 37 25 17
40 -21 18 -17 32 6 20 12 -6 20 -21 20 -35 0 -14 -9 -30 -20 -37 -11 -7 -20
-16 -20 -20 0 -5 45 -8 100 -8 55 0 100 3 100 8 0 4 -9 13 -20 20 -26 16 -26
58 0 72 20 11 30 -3 10 -15 -5 -3 -10 -15 -10 -26 0 -15 7 -19 30 -19 39 0 59
37 42 75 -12 25 -12 25 -145 25 -117 0 -136 -2 -150 -18z"/>
<path d="M60 80 c0 -47 3 -60 15 -60 12 0 15 13 15 60 0 47 -3 60 -15 60 -12
0 -15 -13 -15 -60z"/>
<path d="M100 80 c0 -57 1 -60 25 -60 24 0 25 3 25 60 0 57 -1 60 -25 60 -24
0 -25 -3 -25 -60z"/>
<path d="M170 80 c0 -57 1 -60 25 -60 24 0 25 3 25 60 0 57 -1 60 -25 60 -24
0 -25 -3 -25 -60z"/>
<path d="M240 80 c0 -33 4 -60 10 -60 6 0 10 27 10 60 0 33 -4 60 -10 60 -6 0
-10 -27 -10 -60z"/>
</g>
</svg>
