<?xml version="1.0" standalone="no"?>
<!DOCTYPE svg PUBLIC "-//W3C//DTD SVG 20010904//EN"
 "http://www.w3.org/TR/2001/REC-SVG-20010904/DTD/svg10.dtd">
<svg version="1.0" xmlns="http://www.w3.org/2000/svg"
 width="31.457729pt" height="31.239508pt" viewBox="0 0 31.457729 31.239508"
 preserveAspectRatio="xMidYMid meet">
<metadata>
Created by potrace 1.12, written by Peter Selinger 2001-2015
</metadata>
<g transform="translate(-2.649295,33.976506) scale(0.100000,-0.100000)"
fill="#000000" stroke="none">
<path d="M217 316 c-81 -33 -150 -93 -190 -162 -4 -7 35 -35 104 -74 104 -58
111 -61 124 -43 12 16 10 18 -27 24 -79 11 -123 98 -84 167 28 51 101 76 147
52 16 -9 19 -7 19 9 0 28 -10 51 -24 51 -6 0 -37 -11 -69 -24z"/>
<path d="M214 260 c-28 -11 -64 -58 -64 -82 0 -32 29 -78 56 -88 44 -17 74
-11 105 19 49 50 37 121 -26 147 -39 16 -42 16 -71 4z m60 -41 c-4 -8 -9 -20
-9 -29 -1 -8 -5 -26 -9 -39 -6 -16 -5 -21 3 -17 6 4 11 3 11 -2 0 -13 -48 -33
-55 -22 -3 4 0 21 5 36 8 19 8 29 0 34 -6 4 0 11 15 18 14 7 23 17 20 22 -9
15 5 34 17 22 6 -6 7 -16 2 -23z"/>
</g>
</svg>
