<?xml version="1.0" standalone="no"?>
<!DOCTYPE svg PUBLIC "-//W3C//DTD SVG 20010904//EN"
 "http://www.w3.org/TR/2001/REC-SVG-20010904/DTD/svg10.dtd">
<svg version="1.0" xmlns="http://www.w3.org/2000/svg"
 width="48.374436pt" height="48.374522pt" viewBox="0 0 48.374436 48.374522"
 preserveAspectRatio="xMidYMid meet">
<metadata>
Created by potrace 1.12, written by Peter Selinger 2001-2015
</metadata>
<g transform="translate(-0.812825,49.187261) scale(0.100000,-0.100000)"
fill="#000000" stroke="none">
<path d="M26 474 c-24 -23 -24 -425 0 -448 23 -24 425 -24 448 0 24 23 24 425
0 448 -23 24 -425 24 -448 0z m212 -26 c15 -15 16 -54 2 -63 -5 -3 -10 -15
-10 -25 0 -15 9 -19 43 -22 29 -2 42 -8 42 -18 0 -10 -13 -16 -42 -18 -35 -3
-43 -7 -43 -23 0 -17 7 -19 59 -19 l59 0 28 -64 c27 -62 29 -64 57 -59 38 8
33 -16 -6 -35 -35 -17 -41 -13 -71 53 l-25 55 -63 0 c-35 0 -68 4 -74 8 -6 4
-13 53 -16 115 -5 92 -4 109 11 117 22 13 35 12 49 -2z m-93 -194 c-34 -50
-29 -97 15 -136 47 -43 93 -39 141 12 35 36 38 38 44 19 16 -49 -65 -106 -138
-96 -54 7 -86 32 -108 83 -27 59 -17 108 30 154 27 27 36 31 39 19 1 -9 -9
-34 -23 -55z"/>
</g>
</svg>
