<?xml version="1.0" standalone="no"?>
<!DOCTYPE svg PUBLIC "-//W3C//DTD SVG 20010904//EN"
 "http://www.w3.org/TR/2001/REC-SVG-20010904/DTD/svg10.dtd">
<svg version="1.0" xmlns="http://www.w3.org/2000/svg"
 width="25.810088pt" height="25.821060pt" viewBox="0 0 25.810088 25.821060"
 preserveAspectRatio="xMidYMid meet">
<metadata>
Created by potrace 1.12, written by Peter Selinger 2001-2015
</metadata>
<g transform="translate(-1.026491,26.984482) scale(0.100000,-0.100000)"
fill="#000000" stroke="none">
<path d="M137 255 c-4 -11 -21 -26 -38 -32 -19 -7 -34 -23 -42 -42 -6 -16 -20
-33 -31 -37 -21 -6 -21 -7 -1 -11 11 -2 27 -18 35 -36 8 -18 25 -37 38 -43 12
-6 29 -20 37 -30 12 -16 14 -16 15 -3 0 8 15 22 33 30 19 8 38 27 46 47 8 17
22 32 30 32 13 1 13 3 -3 15 -10 8 -24 25 -30 37 -6 13 -25 30 -43 38 -18 8
-33 24 -35 35 -4 20 -4 20 -11 0z m6 -80 c4 -27 4 -26 6 8 l1 38 29 -15 c26
-14 41 -34 41 -56 0 -5 -17 -10 -37 -12 -36 -3 -38 -5 -41 -40 -4 -43 -21 -49
-52 -18 -30 30 -26 50 13 51 l32 2 -30 4 c-47 7 -51 19 -16 54 35 35 47 31 54
-16z m77 -57 c0 -16 -41 -58 -57 -58 -8 0 -13 13 -13 35 0 33 2 35 35 35 20 0
35 -5 35 -12z"/>
</g>
</svg>
