<?xml version="1.0" standalone="no"?>
<!DOCTYPE svg PUBLIC "-//W3C//DTD SVG 20010904//EN"
 "http://www.w3.org/TR/2001/REC-SVG-20010904/DTD/svg10.dtd">
<svg version="1.0" xmlns="http://www.w3.org/2000/svg"
 width="18.000000pt" height="18.000000pt" viewBox="0 0 18.000000 18.000000"
 preserveAspectRatio="xMidYMid meet">
<metadata>
Created by potrace 1.12, written by Peter Selinger 2001-2015
</metadata>
<g transform="translate(-1.000000,19.000000) scale(0.100000,-0.100000)"
fill="#000000" stroke="none">
<path d="M39 161 c-20 -20 -29 -39 -29 -61 0 -43 47 -90 90 -90 43 0 90 47 90
90 0 43 -47 90 -90 90 -22 0 -41 -9 -61 -29z m81 -36 c0 -17 6 -25 17 -25 14
0 12 -5 -10 -27 l-27 -28 -27 28 c-22 22 -24 27 -10 27 11 0 17 8 17 25 0 18
5 25 20 25 15 0 20 -7 20 -25z"/>
</g>
</svg>
