<?xml version="1.0" standalone="no"?>
<!DOCTYPE svg PUBLIC "-//W3C//DTD SVG 20010904//EN"
 "http://www.w3.org/TR/2001/REC-SVG-20010904/DTD/svg10.dtd">
<svg version="1.0" xmlns="http://www.w3.org/2000/svg"
 width="45.660041pt" height="47.494590pt" viewBox="0 0 45.660041 47.494590"
 preserveAspectRatio="xMidYMid meet">
<metadata>
Created by potrace 1.12, written by Peter Selinger 2001-2015
</metadata>
<g transform="translate(-3.183892,48.843933) scale(0.100000,-0.100000)"
fill="#000000" stroke="none">
<path d="M155 466 c-191 -90 -191 -342 0 -432 65 -31 125 -31 190 0 125 59
177 193 121 311 -59 125 -193 177 -311 121z m154 -6 c141 -40 203 -206 124
-328 -86 -133 -280 -133 -366 0 -108 167 51 383 242 328z"/>
<path d="M150 294 c-11 -12 -10 -18 3 -32 16 -15 18 -15 34 0 13 14 14 20 3
32 -7 9 -16 16 -20 16 -4 0 -13 -7 -20 -16z"/>
<path d="M310 294 c-11 -12 -10 -18 3 -32 16 -15 18 -15 34 0 13 14 14 20 3
32 -7 9 -16 16 -20 16 -4 0 -13 -7 -20 -16z"/>
<path d="M183 180 c-24 -10 -43 -24 -43 -30 0 -13 -1 -13 45 10 22 11 51 20
65 20 14 0 43 -9 65 -20 46 -23 45 -23 45 -10 0 15 -79 50 -110 50 -14 0 -44
-9 -67 -20z"/>
</g>
</svg>
