<?xml version="1.0" standalone="no"?>
<!DOCTYPE svg PUBLIC "-//W3C//DTD SVG 20010904//EN"
 "http://www.w3.org/TR/2001/REC-SVG-20010904/DTD/svg10.dtd">
<svg version="1.0" xmlns="http://www.w3.org/2000/svg"
 width="23.869094pt" height="30.952126pt" viewBox="0 0 23.869094 30.952126"
 preserveAspectRatio="xMidYMid meet">
<metadata>
Created by potrace 1.12, written by Peter Selinger 2001-2015
</metadata>
<g transform="translate(-6.000000,32.952126) scale(0.100000,-0.100000)"
fill="#000000" stroke="none">
<path d="M73 323 c-10 -3 -13 -40 -13 -134 l0 -129 99 0 c81 0 100 3 105 16
11 30 7 229 -6 242 -12 12 -159 16 -185 5z m175 -130 l-3 -118 -85 0 -85 0 -3
104 c-1 58 0 111 2 118 4 9 29 13 91 13 l86 0 -3 -117z"/>
<path d="M100 260 c0 -6 27 -10 60 -10 33 0 60 4 60 10 0 6 -27 10 -60 10 -33
0 -60 -4 -60 -10z"/>
<path d="M128 233 c17 -2 47 -2 65 0 17 2 3 4 -33 4 -36 0 -50 -2 -32 -4z"/>
<path d="M127 203 c18 -2 50 -2 70 0 21 2 7 4 -32 4 -38 0 -55 -2 -38 -4z"/>
<path d="M128 173 c17 -2 47 -2 65 0 17 2 3 4 -33 4 -36 0 -50 -2 -32 -4z"/>
<path d="M100 153 c0 -5 27 -8 60 -8 33 0 60 3 60 8 0 4 -27 7 -60 7 -33 0
-60 -3 -60 -7z"/>
<path d="M127 123 c18 -2 50 -2 70 0 21 2 7 4 -32 4 -38 0 -55 -2 -38 -4z"/>
<path d="M290 177 c-4 -90 -9 -120 -20 -127 -8 -5 -50 -10 -92 -10 -45 0 -78
-4 -78 -10 0 -6 33 -10 79 -10 119 0 122 5 119 155 l-3 120 -5 -118z"/>
</g>
</svg>
