<?xml version="1.0" standalone="no"?>
<!DOCTYPE svg PUBLIC "-//W3C//DTD SVG 20010904//EN"
 "http://www.w3.org/TR/2001/REC-SVG-20010904/DTD/svg10.dtd">
<svg version="1.0" xmlns="http://www.w3.org/2000/svg"
 width="18.505565pt" height="17.503415pt" viewBox="0 0 18.505565 17.503415"
 preserveAspectRatio="xMidYMid meet">
<metadata>
Created by potrace 1.12, written by Peter Selinger 2001-2015
</metadata>
<g transform="translate(-1.207592,20.968925) scale(0.100000,-0.100000)"
fill="#000000" stroke="none">
<path d="M34 184 c-22 -21 -25 -31 -19 -62 3 -20 7 -49 8 -65 1 -20 6 -26 17
-21 8 4 34 8 57 9 53 2 89 26 98 64 12 57 -27 100 -93 101 -33 0 -49 -6 -68
-26z m117 3 c69 -53 25 -129 -72 -125 -31 2 -38 6 -48 33 -16 44 -14 53 14 80
27 27 79 33 106 12z"/>
</g>
</svg>
