<?xml version="1.0" standalone="no"?>
<!DOCTYPE svg PUBLIC "-//W3C//DTD SVG 20010904//EN"
 "http://www.w3.org/TR/2001/REC-SVG-20010904/DTD/svg10.dtd">
<svg version="1.0" xmlns="http://www.w3.org/2000/svg"
 width="27.767872pt" height="28.170952pt" viewBox="0 0 27.767872 28.170952"
 preserveAspectRatio="xMidYMid meet">
<metadata>
Created by potrace 1.12, written by Peter Selinger 2001-2015
</metadata>
<g transform="translate(-4.443731,32.000000) scale(0.100000,-0.100000)"
fill="#000000" stroke="none">
<path d="M45 310 c-4 -6 16 -36 44 -66 49 -54 51 -58 51 -115 0 -55 2 -59 30
-74 61 -31 68 -25 71 71 l4 86 42 37 c34 29 40 39 32 54 -9 15 -27 17 -139 17
-77 0 -131 -4 -135 -10z m209 -52 c-39 -44 -45 -48 -74 -48 -23 0 -90 54 -90
72 0 4 44 8 97 8 l97 0 -30 -32z m-54 -129 c0 -80 -23 -76 -30 4 -5 50 -3 57
12 57 15 0 18 -9 18 -61z"/>
</g>
</svg>
