<?xml version="1.0" standalone="no"?>
<!DOCTYPE svg PUBLIC "-//W3C//DTD SVG 20010904//EN"
 "http://www.w3.org/TR/2001/REC-SVG-20010904/DTD/svg10.dtd">
<svg version="1.0" xmlns="http://www.w3.org/2000/svg"
 width="17.860421pt" height="17.000000pt" viewBox="0 0 17.860421 17.000000"
 preserveAspectRatio="xMidYMid meet">
<metadata>
Created by potrace 1.12, written by Peter Selinger 2001-2015
</metadata>
<g transform="translate(-1.000000,21.000000) scale(0.100000,-0.100000)"
fill="#000000" stroke="none">
<path d="M10 125 l0 -85 90 0 c94 0 98 2 80 45 -8 18 -9 17 -9 -7 -1 -28 -1
-28 -76 -28 l-75 0 0 75 0 75 75 0 c72 0 75 -1 75 -23 0 -30 -18 -47 -48 -47
-20 0 -22 4 -16 23 l6 22 -26 -24 -26 -25 22 -23 c26 -28 31 -29 23 -3 -5 17
-2 20 28 20 27 0 36 5 46 26 6 15 9 35 6 45 -6 17 -17 19 -91 19 l-84 0 0 -85z"/>
</g>
</svg>
