<?xml version="1.0" standalone="no"?>
<!DOCTYPE svg PUBLIC "-//W3C//DTD SVG 20010904//EN"
 "http://www.w3.org/TR/2001/REC-SVG-20010904/DTD/svg10.dtd">
<svg version="1.0" xmlns="http://www.w3.org/2000/svg"
 width="33.960101pt" height="33.898899pt" viewBox="0 0 33.960101 33.898899"
 preserveAspectRatio="xMidYMid meet">
<metadata>
Created by potrace 1.12, written by Peter Selinger 2001-2015
</metadata>
<g transform="translate(-1.039899,34.960101) scale(0.100000,-0.100000)"
fill="#000000" stroke="none">
<path d="M160 330 c-6 -11 -18 -20 -26 -20 -21 0 -84 -63 -84 -84 0 -8 -9 -20
-20 -26 -23 -12 -27 -40 -5 -40 8 0 21 -15 29 -33 14 -35 59 -77 82 -77 7 0
18 -9 24 -20 14 -26 40 -26 40 0 0 14 7 20 21 20 27 0 89 62 89 89 0 14 6 21
20 21 12 0 20 7 20 16 0 9 -9 18 -20 21 -11 3 -20 13 -20 23 0 26 -39 71 -77
86 -18 8 -33 21 -33 29 0 22 -28 18 -40 -5z m67 -53 c16 -9 20 -16 13 -26 -6
-11 -12 -12 -22 -3 -11 9 -18 9 -27 -1 -11 -9 -14 -9 -18 1 -4 10 -8 10 -19 1
-11 -9 -18 -8 -30 2 -14 11 -13 14 8 25 29 17 67 17 95 1z m-111 -75 c-1 -15
-5 -32 -9 -39 -4 -6 -1 -13 5 -16 10 -3 10 -8 -1 -21 -14 -16 -15 -16 -27 6
-17 29 -17 60 -2 92 14 32 36 18 34 -22z m173 -22 c0 -14 -5 -35 -13 -48 -18
-33 -33 -10 -32 48 1 61 14 81 32 49 7 -13 13 -35 13 -49z m-69 0 c0 -28 -2
-30 -40 -30 -38 0 -40 2 -40 30 0 28 2 30 40 30 38 0 40 -2 40 -30z m-56 -72
c7 12 56 10 75 -2 11 -7 9 -12 -10 -22 -13 -7 -34 -13 -46 -14 -26 0 -73 20
-73 31 0 12 24 17 37 7 7 -5 13 -5 17 0z"/>
</g>
</svg>
