<?xml version="1.0" standalone="no"?>
<!DOCTYPE svg PUBLIC "-//W3C//DTD SVG 20010904//EN"
 "http://www.w3.org/TR/2001/REC-SVG-20010904/DTD/svg10.dtd">
<svg version="1.0" xmlns="http://www.w3.org/2000/svg"
 width="28.042329pt" height="28.090428pt" viewBox="0 0 28.042329 28.090428"
 preserveAspectRatio="xMidYMid meet">
<metadata>
Created by potrace 1.12, written by Peter Selinger 2001-2015
</metadata>
<g transform="translate(-4.000000,31.971033) scale(0.100000,-0.100000)"
fill="#000000" stroke="none">
<path d="M108 269 c-38 -28 -68 -57 -68 -65 0 -21 5 -18 73 35 l63 49 64 -49
c36 -26 68 -49 73 -49 15 0 6 26 -13 38 -13 8 -20 23 -20 42 0 32 -26 43 -32
14 -2 -14 -8 -13 -34 10 -18 14 -33 26 -35 26 -2 0 -34 -23 -71 -51z"/>
<path d="M118 222 l-48 -36 0 -73 0 -73 40 0 40 0 0 45 c0 41 2 45 24 45 22 0
25 -5 28 -42 3 -43 3 -43 46 -46 l43 -3 -3 73 -3 72 -50 38 c-27 21 -54 38
-60 37 -5 0 -31 -17 -57 -37z"/>
</g>
</svg>
