<?xml version="1.0" standalone="no"?>
<!DOCTYPE svg PUBLIC "-//W3C//DTD SVG 20010904//EN"
 "http://www.w3.org/TR/2001/REC-SVG-20010904/DTD/svg10.dtd">
<svg version="1.0" xmlns="http://www.w3.org/2000/svg"
 width="28.000103pt" height="30.810078pt" viewBox="0 0 28.000103 30.810078"
 preserveAspectRatio="xMidYMid meet">
<metadata>
Created by potrace 1.12, written by Peter Selinger 2001-2015
</metadata>
<g transform="translate(-4.000000,32.000103) scale(0.100000,-0.100000)"
fill="#000000" stroke="none">
<path d="M56 304 c-13 -12 -16 -39 -16 -124 0 -124 8 -140 67 -140 20 0 45 -7
55 -17 17 -15 19 -15 36 0 10 10 35 17 55 17 59 0 67 16 67 140 0 142 2 140
-140 140 -85 0 -112 -3 -124 -16z m134 -69 c0 -8 -4 -15 -10 -15 -5 0 -10 7
-10 15 0 8 5 15 10 15 6 0 10 -7 10 -15z m0 -85 c0 -22 -4 -40 -10 -40 -5 0
-10 18 -10 40 0 22 5 40 10 40 6 0 10 -18 10 -40z"/>
</g>
</svg>
