<?xml version="1.0" standalone="no"?>
<!DOCTYPE svg PUBLIC "-//W3C//DTD SVG 20010904//EN"
 "http://www.w3.org/TR/2001/REC-SVG-20010904/DTD/svg10.dtd">
<svg version="1.0" xmlns="http://www.w3.org/2000/svg"
 width="35.703980pt" height="35.670206pt" viewBox="0 0 35.703980 35.670206"
 preserveAspectRatio="xMidYMid meet">
<metadata>
Created by potrace 1.12, written by Peter Selinger 2001-2015
</metadata>
<g transform="translate(-0.252626,35.813388) scale(0.100000,-0.100000)"
fill="#000000" stroke="none">
<path d="M102 339 c-89 -45 -125 -152 -80 -239 67 -129 243 -132 315 -5 84
148 -83 321 -235 244z m116 -72 c4 -20 -25 -34 -40 -19 -15 15 -1 44 19 40 10
-2 19 -11 21 -21z m-15 -69 c2 -7 0 -26 -5 -43 -12 -45 -10 -63 10 -68 12 -3
10 -6 -11 -12 -45 -12 -62 11 -47 64 11 42 6 66 -11 56 -5 -4 -9 -1 -9 4 0 15
67 14 73 -1z"/>
</g>
</svg>
