<?xml version="1.0" standalone="no"?>
<!DOCTYPE svg PUBLIC "-//W3C//DTD SVG 20010904//EN"
 "http://www.w3.org/TR/2001/REC-SVG-20010904/DTD/svg10.dtd">
<svg version="1.0" xmlns="http://www.w3.org/2000/svg"
 width="29.988150pt" height="25.941896pt" viewBox="0 0 29.988150 25.941896"
 preserveAspectRatio="xMidYMid meet">
<metadata>
Created by potrace 1.12, written by Peter Selinger 2001-2015
</metadata>
<g transform="translate(-3.000000,30.941896) scale(0.100000,-0.100000)"
fill="#000000" stroke="none">
<path d="M113 267 c-46 -23 -83 -44 -83 -47 0 -3 13 -13 29 -23 21 -12 51 -17
104 -17 62 0 83 4 121 26 25 14 46 29 46 32 0 8 -115 72 -127 71 -4 0 -45 -19
-90 -42z m132 1 c25 -12 45 -25 45 -30 0 -10 -54 -38 -73 -38 -8 0 -26 9 -39
20 -25 19 -25 19 -44 -1 -18 -20 -55 -23 -61 -4 -2 8 97 67 124 74 1 1 23 -9
48 -21z"/>
<path d="M242 164 c-41 -24 -78 -44 -83 -44 -5 0 -33 16 -63 35 -30 19 -57 31
-60 26 -4 -5 23 -27 58 -50 l65 -41 86 51 c47 28 83 55 80 60 -4 5 -7 9 -8 8
-1 0 -35 -20 -75 -45z"/>
<path d="M231 114 l-73 -45 -55 36 c-30 20 -60 34 -66 32 -10 -3 104 -87 119
-87 11 0 163 91 170 101 12 20 -25 6 -95 -37z"/>
</g>
</svg>
