<?xml version="1.0" standalone="no"?>
<!DOCTYPE svg PUBLIC "-//W3C//DTD SVG 20010904//EN"
 "http://www.w3.org/TR/2001/REC-SVG-20010904/DTD/svg10.dtd">
<svg version="1.0" xmlns="http://www.w3.org/2000/svg"
 width="26.550948pt" height="28.530185pt" viewBox="0 0 26.550948 28.530185"
 preserveAspectRatio="xMidYMid meet">
<metadata>
Created by potrace 1.12, written by Peter Selinger 2001-2015
</metadata>
<g transform="translate(-4.878752,32.030185) scale(0.100000,-0.100000)"
fill="#000000" stroke="none">
<path d="M101 289 c-18 -24 -25 -28 -32 -18 -4 7 -11 10 -15 6 -4 -4 0 -15 10
-25 16 -16 19 -15 46 18 16 19 30 38 30 43 0 16 -18 5 -39 -24z"/>
<path d="M170 278 c0 -22 4 -23 70 -23 66 0 70 1 70 23 0 21 -4 22 -70 22 -66
0 -70 -1 -70 -22z"/>
<path d="M50 181 l0 -41 41 0 40 0 -3 38 c-3 35 -5 37 -40 40 l-38 3 0 -40z
m60 -1 c0 -13 -7 -20 -20 -20 -13 0 -20 7 -20 20 0 13 7 20 20 20 13 0 20 -7
20 -20z"/>
<path d="M170 180 c0 -18 7 -20 74 -20 69 0 74 1 69 20 -5 18 -14 20 -74 20
-62 0 -69 -2 -69 -20z"/>
<path d="M52 78 c3 -42 4 -43 38 -43 34 0 35 1 35 40 0 39 -1 40 -38 43 l-38
3 3 -43z m56 -1 c2 -12 -3 -17 -17 -17 -15 0 -21 6 -21 21 0 25 33 22 38 -4z"/>
<path d="M170 80 c0 -18 7 -20 70 -20 63 0 70 2 70 20 0 18 -7 20 -70 20 -63
0 -70 -2 -70 -20z"/>
</g>
</svg>
