<?xml version="1.0" standalone="no"?>
<!DOCTYPE svg PUBLIC "-//W3C//DTD SVG 20010904//EN"
 "http://www.w3.org/TR/2001/REC-SVG-20010904/DTD/svg10.dtd">
<svg version="1.0" xmlns="http://www.w3.org/2000/svg"
 width="22.000000pt" height="26.000000pt" viewBox="0 0 22.000000 26.000000"
 preserveAspectRatio="xMidYMid meet">
<metadata>
Created by potrace 1.12, written by Peter Selinger 2001-2015
</metadata>
<g transform="translate(-7.000000,31.000000) scale(0.100000,-0.100000)"
fill="#000000" stroke="none">
<path d="M70 295 c0 -12 19 -15 110 -15 91 0 110 3 110 15 0 12 -19 15 -110
15 -91 0 -110 -3 -110 -15z"/>
<path d="M70 245 c0 -18 4 -22 20 -18 11 3 20 11 20 18 0 7 -9 15 -20 18 -16
4 -20 0 -20 -18z"/>
<path d="M130 245 c0 -12 14 -15 65 -15 51 0 65 3 65 15 0 12 -14 15 -65 15
-51 0 -65 -3 -65 -15z"/>
<path d="M70 187 c0 -20 4 -24 20 -20 25 7 23 36 -3 41 -12 3 -17 -3 -17 -21z"/>
<path d="M130 190 c0 -6 27 -10 60 -10 33 0 60 4 60 10 0 6 -27 10 -60 10 -33
0 -60 -4 -60 -10z"/>
<path d="M70 130 c0 -13 7 -20 20 -20 13 0 20 7 20 20 0 13 -7 20 -20 20 -13
0 -20 -7 -20 -20z"/>
<path d="M130 130 c0 -6 28 -10 65 -10 37 0 65 4 65 10 0 6 -28 10 -65 10 -37
0 -65 -4 -65 -10z"/>
<path d="M70 70 c0 -13 7 -20 20 -20 13 0 20 7 20 20 0 13 -7 20 -20 20 -13 0
-20 -7 -20 -20z"/>
<path d="M137 83 c-17 -16 -3 -23 43 -23 38 0 50 4 50 15 0 11 -11 15 -43 15
-24 0 -47 -3 -50 -7z"/>
</g>
</svg>
