<?xml version="1.0" standalone="no"?>
<!DOCTYPE svg PUBLIC "-//W3C//DTD SVG 20010904//EN"
 "http://www.w3.org/TR/2001/REC-SVG-20010904/DTD/svg10.dtd">
<svg version="1.0" xmlns="http://www.w3.org/2000/svg"
 width="35.506621pt" height="35.471596pt" viewBox="0 0 35.506621 35.471596"
 preserveAspectRatio="xMidYMid meet">
<metadata>
Created by potrace 1.12, written by Peter Selinger 2001-2015
</metadata>
<g transform="translate(-0.265979,35.706825) scale(0.100000,-0.100000)"
fill="#000000" stroke="none">
<path d="M123 349 c-75 -22 -132 -119 -118 -198 16 -92 105 -159 192 -147 89
12 147 70 159 159 17 121 -111 223 -233 186z m137 -31 c57 -39 75 -72 75 -138
0 -97 -58 -155 -155 -155 -66 0 -99 18 -138 75 -88 131 87 306 218 218z"/>
<path d="M78 271 c-27 -38 -38 -103 -20 -115 18 -11 62 -14 67 -5 10 16 31 10
60 -17 15 -14 33 -23 40 -20 10 4 11 -2 4 -27 -13 -46 -12 -48 20 -29 16 9 28
19 25 23 -2 4 7 14 21 23 23 15 38 55 15 41 -22 -14 -60 8 -69 40 -5 18 -18
42 -30 54 -11 11 -21 27 -21 35 0 7 -12 16 -27 19 -16 3 -35 8 -43 11 -10 4
-25 -8 -42 -33z m103 -17 c5 -14 15 -27 23 -30 8 -3 17 -16 20 -29 3 -13 9
-30 12 -39 5 -12 0 -16 -20 -16 -14 0 -26 4 -26 8 0 5 -11 15 -25 22 -19 10
-28 10 -39 1 -8 -7 -25 -9 -40 -5 -34 8 -35 44 -1 88 21 27 30 32 56 28 21 -3
33 -12 40 -28z"/>
</g>
</svg>
