<?xml version="1.0" standalone="no"?>
<!DOCTYPE svg PUBLIC "-//W3C//DTD SVG 20010904//EN"
 "http://www.w3.org/TR/2001/REC-SVG-20010904/DTD/svg10.dtd">
<svg version="1.0" xmlns="http://www.w3.org/2000/svg"
 width="26.908861pt" height="20.824075pt" viewBox="0 0 26.908861 20.824075"
 preserveAspectRatio="xMidYMid meet">
<metadata>
Created by potrace 1.12, written by Peter Selinger 2001-2015
</metadata>
<g transform="translate(-3.000000,27.000000) scale(0.100000,-0.100000)"
fill="#000000" stroke="none">
<path d="M37 263 c-4 -3 -7 -46 -7 -95 l0 -89 83 1 c45 1 89 0 97 -3 8 -3 32
-8 54 -12 37 -6 38 -5 32 17 -3 13 -6 31 -6 40 0 24 -28 48 -55 48 -29 0 -59
-39 -49 -64 6 -15 -2 -17 -67 -14 l-74 3 -3 78 -3 77 115 0 115 0 4 -42 c3
-41 4 -41 5 10 l2 52 -118 0 c-65 0 -122 -3 -125 -7z m223 -118 c20 -25 8 -50
-25 -50 -21 0 -31 5 -33 18 -4 21 14 47 33 47 7 0 18 -7 25 -15z"/>
</g>
</svg>
