<?xml version="1.0" standalone="no"?>
<!DOCTYPE svg PUBLIC "-//W3C//DTD SVG 20010904//EN"
 "http://www.w3.org/TR/2001/REC-SVG-20010904/DTD/svg10.dtd">
<svg version="1.0" xmlns="http://www.w3.org/2000/svg"
 width="29.880171pt" height="25.890620pt" viewBox="0 0 29.880171 25.890620"
 preserveAspectRatio="xMidYMid meet">
<metadata>
Created by potrace 1.12, written by Peter Selinger 2001-2015
</metadata>
<g transform="translate(-1.119829,29.000000) scale(0.100000,-0.100000)"
fill="#000000" stroke="none">
<path d="M12 178 l3 -113 36 -20 c36 -18 38 -18 76 -1 38 17 41 17 76 0 35
-17 38 -17 72 2 l35 19 0 112 c0 71 -4 113 -10 113 -6 0 -22 -7 -36 -16 -23
-16 -27 -15 -65 1 -37 17 -42 17 -75 2 -31 -15 -38 -16 -64 -2 -50 26 -51 23
-48 -97z m201 78 c21 -8 32 -7 47 2 36 22 40 15 40 -86 l0 -98 -31 -18 c-30
-18 -32 -18 -70 0 -37 16 -42 16 -75 1 -32 -16 -38 -16 -64 -2 l-30 16 0 100
c0 92 2 101 18 94 38 -16 51 -16 78 -1 16 8 36 13 44 9 8 -3 27 -10 43 -17z"/>
<path d="M56 212 c-2 -4 2 -21 9 -37 8 -17 19 -43 25 -60 l11 -29 13 24 c12
22 11 27 -7 43 -15 13 -17 21 -9 29 20 20 13 38 -12 38 -14 0 -27 -4 -30 -8z"/>
<path d="M178 208 c-16 -5 -28 -14 -28 -19 0 -6 6 -7 13 -3 6 4 5 -1 -4 -12
-14 -17 -14 -22 2 -54 l17 -35 12 27 c10 20 10 31 2 41 -9 10 -4 12 23 9 29
-4 36 0 44 19 13 36 -25 48 -81 27z"/>
<path d="M247 124 c-8 -8 1 -24 14 -24 5 0 9 7 9 15 0 15 -12 20 -23 9z"/>
</g>
</svg>
