<?xml version="1.0" standalone="no"?>
<!DOCTYPE svg PUBLIC "-//W3C//DTD SVG 20010904//EN"
 "http://www.w3.org/TR/2001/REC-SVG-20010904/DTD/svg10.dtd">
<svg version="1.0" xmlns="http://www.w3.org/2000/svg"
 width="27.219400pt" height="27.416373pt" viewBox="0 0 27.219400 27.416373"
 preserveAspectRatio="xMidYMid meet">
<metadata>
Created by potrace 1.12, written by Peter Selinger 2001-2015
</metadata>
<g transform="translate(-4.113933,32.083040) scale(0.100000,-0.100000)"
fill="#000000" stroke="none">
<path d="M106 301 c-115 -76 -68 -254 69 -254 79 0 138 59 138 138 0 103 -122
172 -207 116z m64 -21 c0 -11 5 -20 10 -20 6 0 10 9 10 20 0 24 3 24 40 5 56
-29 79 -90 38 -98 l-23 -4 23 -8 c31 -10 28 -31 -12 -71 -40 -40 -61 -43 -71
-11 l-8 22 -4 -22 c-8 -42 -69 -19 -98 37 -19 37 -19 40 5 40 11 0 20 5 20 10
0 6 -9 10 -20 10 -24 0 -24 3 -4 45 8 18 30 40 47 49 42 20 47 20 47 -4z"/>
</g>
</svg>
