<?xml version="1.0" standalone="no"?>
<!DOCTYPE svg PUBLIC "-//W3C//DTD SVG 20010904//EN"
 "http://www.w3.org/TR/2001/REC-SVG-20010904/DTD/svg10.dtd">
<svg version="1.0" xmlns="http://www.w3.org/2000/svg"
 width="26.075311pt" height="25.844326pt" viewBox="0 0 26.075311 25.844326"
 preserveAspectRatio="xMidYMid meet">
<metadata>
Created by potrace 1.12, written by Peter Selinger 2001-2015
</metadata>
<g transform="translate(-4.143082,30.344326) scale(0.100000,-0.100000)"
fill="#000000" stroke="none">
<path d="M53 297 c-9 -14 19 -39 31 -27 15 15 123 13 129 -2 3 -10 9 -8 23 4
10 10 15 20 12 24 -10 9 -189 10 -195 1z"/>
<path d="M52 242 c-9 -6 -12 -34 -10 -103 l3 -94 95 0 95 0 0 100 0 100 -85 3
c-47 1 -91 -2 -98 -6z m168 -102 l0 -80 -80 0 -80 0 0 80 0 80 80 0 80 0 0
-80z"/>
<path d="M270 220 c-7 -14 -7 -20 0 -20 6 0 10 -25 10 -60 0 -38 -4 -60 -11
-60 -8 0 -7 -5 1 -15 24 -29 33 -9 32 73 0 45 -1 87 -1 92 -1 17 -20 11 -31
-10z"/>
</g>
</svg>
