<?xml version="1.0" standalone="no"?>
<!DOCTYPE svg PUBLIC "-//W3C//DTD SVG 20010904//EN"
 "http://www.w3.org/TR/2001/REC-SVG-20010904/DTD/svg10.dtd">
<svg version="1.0" xmlns="http://www.w3.org/2000/svg"
 width="15.528160pt" height="18.500000pt" viewBox="0 0 15.528160 18.500000"
 preserveAspectRatio="xMidYMid meet">
<metadata>
Created by potrace 1.12, written by Peter Selinger 2001-2015
</metadata>
<g transform="translate(-2.229665,19.000000) scale(0.100000,-0.100000)"
fill="#000000" stroke="none">
<path d="M68 153 c-2 -31 -7 -39 -25 -41 -30 -4 -29 -9 17 -62 l39 -45 40 45
c47 53 48 58 19 62 -19 2 -24 10 -26 41 -3 33 -6 37 -32 37 -26 0 -29 -4 -32
-37z m42 -13 c0 -21 6 -33 20 -38 19 -7 19 -8 -5 -37 l-25 -30 -26 29 c-26 29
-26 30 -5 38 15 5 21 16 21 38 0 16 5 30 10 30 6 0 10 -14 10 -30z"/>
</g>
</svg>
