<?xml version="1.0" standalone="no"?>
<!DOCTYPE svg PUBLIC "-//W3C//DTD SVG 20010904//EN"
 "http://www.w3.org/TR/2001/REC-SVG-20010904/DTD/svg10.dtd">
<svg version="1.0" xmlns="http://www.w3.org/2000/svg"
 width="19.000000pt" height="19.616139pt" viewBox="0 0 19.000000 19.616139"
 preserveAspectRatio="xMidYMid meet">
<metadata>
Created by potrace 1.12, written by Peter Selinger 2001-2015
</metadata>
<g transform="translate(-11.000000,24.000000) scale(0.100000,-0.100000)"
fill="#000000" stroke="none">
<path d="M110 218 c0 -19 2 -20 13 -6 6 9 19 18 27 21 8 3 3 6 -12 6 -22 1
-28 -3 -28 -21z"/>
<path d="M230 222 c0 -14 7 -18 30 -16 27 2 30 -1 30 -26 0 -38 -20 -43 -47
-11 -21 25 -22 26 -40 7 -13 -13 -15 -20 -5 -23 17 -7 15 -33 -3 -33 -8 0 -15
8 -15 17 0 15 -2 14 -14 -3 -18 -24 -4 -44 25 -37 16 5 20 1 19 -13 -4 -39 -1
-47 14 -35 8 7 12 21 9 32 -5 16 -2 20 13 18 29 -5 48 10 33 27 -9 11 -8 14 5
14 13 0 16 11 16 50 l0 50 -35 0 c-27 0 -35 -4 -35 -18z m28 -90 c2 -7 -3 -12
-12 -12 -9 0 -16 7 -16 16 0 17 22 14 28 -4z"/>
<path d="M113 164 c0 -19 4 -24 26 -23 14 0 20 3 13 6 -6 2 -10 8 -8 12 3 4
-3 12 -13 18 -16 10 -18 8 -18 -13z"/>
</g>
</svg>
