<?xml version="1.0" standalone="no"?>
<!DOCTYPE svg PUBLIC "-//W3C//DTD SVG 20010904//EN"
 "http://www.w3.org/TR/2001/REC-SVG-20010904/DTD/svg10.dtd">
<svg version="1.0" xmlns="http://www.w3.org/2000/svg"
 width="19.758407pt" height="19.809201pt" viewBox="0 0 19.758407 19.809201"
 preserveAspectRatio="xMidYMid meet">
<metadata>
Created by potrace 1.12, written by Peter Selinger 2001-2015
</metadata>
<g transform="translate(-0.057932,19.985773) scale(0.100000,-0.100000)"
fill="#000000" stroke="none">
<path d="M25 175 c-30 -29 -32 -74 -6 -106 16 -20 28 -24 67 -23 39 1 51 -3
70 -25 19 -22 25 -24 36 -13 11 11 8 17 -14 37 -23 20 -26 28 -21 63 5 34 1
44 -20 66 -34 34 -79 34 -112 1z m101 -21 c37 -55 -25 -117 -80 -80 -49 31
-24 106 35 106 20 0 34 -8 45 -26z"/>
<path d="M40 120 l0 -40 40 0 40 0 0 40 0 40 -40 0 -40 0 0 -40z m70 0 c0 -27
-3 -30 -30 -30 -27 0 -30 3 -30 30 0 27 3 30 30 30 27 0 30 -3 30 -30z"/>
</g>
</svg>
