<?xml version="1.0" standalone="no"?>
<!DOCTYPE svg PUBLIC "-//W3C//DTD SVG 20010904//EN"
 "http://www.w3.org/TR/2001/REC-SVG-20010904/DTD/svg10.dtd">
<svg version="1.0" xmlns="http://www.w3.org/2000/svg"
 width="21.552360pt" height="23.719204pt" viewBox="0 0 21.552360 23.719204"
 preserveAspectRatio="xMidYMid meet">
<metadata>
Created by potrace 1.12, written by Peter Selinger 2001-2015
</metadata>
<g transform="translate(-7.281967,30.000000) scale(0.100000,-0.100000)"
fill="#000000" stroke="none">
<path d="M225 280 c-18 -20 -18 -21 3 -43 l22 -21 22 21 c21 22 21 23 3 43
-10 11 -21 20 -25 20 -4 0 -15 -9 -25 -20z"/>
<path d="M146 194 l-49 -55 23 -24 23 -25 48 53 c27 28 48 57 49 63 0 10 -32
45 -41 43 -2 0 -26 -25 -53 -55z m9 -34 c-16 -16 -31 -28 -34 -25 -2 3 8 19
24 35 16 16 31 28 34 25 2 -3 -8 -19 -24 -35z"/>
<path d="M80 94 c-13 -33 -9 -37 24 -25 31 13 33 22 6 39 -18 11 -21 9 -30
-14z m30 1 c10 -12 10 -15 -4 -15 -9 0 -16 7 -16 15 0 8 2 15 4 15 2 0 9 -7
16 -15z"/>
</g>
</svg>
