<?xml version="1.0" standalone="no"?>
<!DOCTYPE svg PUBLIC "-//W3C//DTD SVG 20010904//EN"
 "http://www.w3.org/TR/2001/REC-SVG-20010904/DTD/svg10.dtd">
<svg version="1.0" xmlns="http://www.w3.org/2000/svg"
 width="14.250000pt" height="18.000000pt" viewBox="0 0 14.250000 18.000000"
 preserveAspectRatio="xMidYMid meet">
<metadata>
Created by potrace 1.12, written by Peter Selinger 2001-2015
</metadata>
<g transform="translate(-4.750000,19.000000) scale(0.100000,-0.100000)"
fill="#000000" stroke="none">
<path d="M88 153 c-3 -36 -5 -38 -40 -41 -49 -4 -49 -20 0 -24 35 -3 37 -5 40
-40 2 -21 7 -38 12 -38 5 0 10 17 12 38 3 35 5 37 41 40 20 2 37 7 37 12 0 5
-17 10 -37 12 -36 3 -38 5 -41 41 -2 20 -7 37 -12 37 -5 0 -10 -17 -12 -37z"/>
</g>
</svg>
