<?xml version="1.0" standalone="no"?>
<!DOCTYPE svg PUBLIC "-//W3C//DTD SVG 20010904//EN"
 "http://www.w3.org/TR/2001/REC-SVG-20010904/DTD/svg10.dtd">
<svg version="1.0" xmlns="http://www.w3.org/2000/svg"
 width="27.080481pt" height="26.085969pt" viewBox="0 0 27.080481 26.085969"
 preserveAspectRatio="xMidYMid meet">
<metadata>
Created by potrace 1.12, written by Peter Selinger 2001-2015
</metadata>
<g transform="translate(-2.953750,29.048119) scale(0.100000,-0.100000)"
fill="#000000" stroke="none">
<path d="M37 283 c-13 -12 -8 -228 5 -241 17 -17 229 -17 246 0 16 16 16 220
0 236 -13 13 -239 18 -251 5z m233 -118 l0 -105 -110 0 -110 0 0 98 c0 54 3
102 7 105 3 4 53 7 110 7 l103 0 0 -105z"/>
<path d="M70 220 c0 -16 5 -30 10 -30 6 0 10 9 10 20 0 13 7 20 20 20 11 0 20
5 20 10 0 6 -13 10 -30 10 -27 0 -30 -3 -30 -30z"/>
<path d="M200 240 c0 -5 9 -10 20 -10 13 0 20 -7 20 -20 0 -11 5 -20 10 -20 6
0 10 14 10 30 0 27 -3 30 -30 30 -16 0 -30 -4 -30 -10z"/>
<path d="M70 100 c0 -27 3 -30 30 -30 17 0 30 5 30 10 0 6 -9 10 -20 10 -13 0
-20 7 -20 20 0 11 -4 20 -10 20 -5 0 -10 -13 -10 -30z"/>
<path d="M240 110 c0 -13 -7 -20 -20 -20 -11 0 -20 -4 -20 -10 0 -5 14 -10 30
-10 27 0 30 3 30 30 0 17 -4 30 -10 30 -5 0 -10 -9 -10 -20z"/>
</g>
</svg>
