<?xml version="1.0" standalone="no"?>
<!DOCTYPE svg PUBLIC "-//W3C//DTD SVG 20010904//EN"
 "http://www.w3.org/TR/2001/REC-SVG-20010904/DTD/svg10.dtd">
<svg version="1.0" xmlns="http://www.w3.org/2000/svg"
 width="16.000000pt" height="18.000000pt" viewBox="0 0 16.000000 18.000000"
 preserveAspectRatio="xMidYMid meet">
<metadata>
Created by potrace 1.12, written by Peter Selinger 2001-2015
</metadata>
<g transform="translate(-2.000000,19.000000) scale(0.100000,-0.100000)"
fill="#000000" stroke="none">
<path d="M56 146 c-20 -24 -36 -47 -36 -49 0 -3 10 -7 23 -9 18 -2 23 -10 25
-40 3 -34 6 -38 32 -38 26 0 29 4 32 38 2 30 7 38 26 40 12 2 22 6 22 8 0 9
-74 94 -81 94 -4 0 -23 -20 -43 -44z m73 -15 c21 -29 21 -29 1 -34 -15 -4 -20
-14 -20 -36 0 -17 -4 -31 -10 -31 -5 0 -10 14 -10 30 0 22 -6 33 -21 38 l-20
8 21 27 c27 34 34 34 59 -2z"/>
</g>
</svg>
