<?xml version="1.0" standalone="no"?>
<!DOCTYPE svg PUBLIC "-//W3C//DTD SVG 20010904//EN"
 "http://www.w3.org/TR/2001/REC-SVG-20010904/DTD/svg10.dtd">
<svg version="1.0" xmlns="http://www.w3.org/2000/svg"
 width="32.850486pt" height="29.839951pt" viewBox="0 0 32.850486 29.839951"
 preserveAspectRatio="xMidYMid meet">
<metadata>
Created by potrace 1.12, written by Peter Selinger 2001-2015
</metadata>
<g transform="translate(-1.149514,32.839951) scale(0.100000,-0.100000)"
fill="#000000" stroke="none">
<path d="M265 304 c-47 -28 -55 -29 -55 -9 0 19 -41 29 -85 21 -35 -7 -35 -7
-35 -61 l0 -55 125 0 c114 0 125 2 125 18 0 28 -21 42 -64 42 l-41 0 47 27
c26 14 45 30 42 34 -7 12 -13 10 -59 -17z"/>
<path d="M30 180 c14 -11 33 -22 43 -26 9 -3 17 -12 17 -20 0 -11 23 -14 125
-14 l125 0 0 34 0 33 -125 0 c-69 0 -125 -4 -125 -9 0 -4 -16 -1 -36 7 -48 20
-54 19 -24 -5z"/>
<path d="M90 81 c0 -44 16 -51 118 -51 108 0 132 9 132 49 l0 29 -125 0 -125
-1 0 -26z"/>
</g>
</svg>
