<?xml version="1.0" standalone="no"?>
<!DOCTYPE svg PUBLIC "-//W3C//DTD SVG 20010904//EN"
 "http://www.w3.org/TR/2001/REC-SVG-20010904/DTD/svg10.dtd">
<svg version="1.0" xmlns="http://www.w3.org/2000/svg"
 width="14.855506pt" height="11.384623pt" viewBox="0 0 14.855506 11.384623"
 preserveAspectRatio="xMidYMid meet">
<metadata>
Created by potrace 1.12, written by Peter Selinger 2001-2015
</metadata>
<g transform="translate(-2.144494,16.199130) scale(0.100000,-0.100000)"
fill="#000000" stroke="none">
<path d="M81 160 c-13 -3 -33 -18 -45 -33 -16 -22 -18 -32 -10 -54 12 -35 28
-33 32 4 5 37 19 53 49 53 18 0 24 -4 19 -15 -4 -11 1 -15 19 -15 20 0 25 5
25 23 0 18 -8 26 -32 33 -18 6 -44 8 -57 4z"/>
</g>
</svg>
