<?xml version="1.0" standalone="no"?>
<!DOCTYPE svg PUBLIC "-//W3C//DTD SVG 20010904//EN"
 "http://www.w3.org/TR/2001/REC-SVG-20010904/DTD/svg10.dtd">
<svg version="1.0" xmlns="http://www.w3.org/2000/svg"
 width="18.863911pt" height="18.732108pt" viewBox="0 0 18.863911 18.732108"
 preserveAspectRatio="xMidYMid meet">
<metadata>
Created by potrace 1.12, written by Peter Selinger 2001-2015
</metadata>
<g transform="translate(-0.827005,19.043440) scale(0.100000,-0.100000)"
fill="#000000" stroke="none">
<path d="M27 172 c-46 -50 -1 -139 65 -129 26 4 39 -1 61 -21 21 -20 30 -23
39 -14 9 9 6 18 -14 39 -20 22 -24 36 -21 63 3 26 -1 41 -17 58 -27 28 -89 30
-113 4z m105 -26 c22 -33 -7 -86 -48 -86 -33 0 -56 27 -52 64 5 52 70 67 100
22z"/>
<path d="M52 85 c9 -10 21 -16 28 -13 7 2 -1 10 -16 17 -27 12 -28 11 -12 -4z"/>
</g>
</svg>
