<?xml version="1.0" standalone="no"?>
<!DOCTYPE svg PUBLIC "-//W3C//DTD SVG 20010904//EN"
 "http://www.w3.org/TR/2001/REC-SVG-20010904/DTD/svg10.dtd">
<svg version="1.0" xmlns="http://www.w3.org/2000/svg"
 width="27.290012pt" height="27.377907pt" viewBox="0 0 27.290012 27.377907"
 preserveAspectRatio="xMidYMid meet">
<metadata>
Created by potrace 1.12, written by Peter Selinger 2001-2015
</metadata>
<g transform="translate(-2.159830,30.000000) scale(0.100000,-0.100000)"
fill="#000000" stroke="none">
<path d="M31 286 c-8 -9 -11 -50 -9 -117 l3 -104 53 -3 c42 -2 52 0 52 12 0
12 -10 16 -35 16 -19 0 -35 5 -35 10 0 6 17 10 37 10 43 0 34 16 -12 23 -24 3
-21 4 13 6 53 1 56 21 2 21 -64 0 -46 19 23 23 l62 3 -62 2 c-84 3 -82 22 2
22 37 0 65 -4 65 -10 0 -5 9 -10 20 -10 32 0 24 32 -18 73 -34 34 -43 37 -94
37 -35 0 -60 -5 -67 -14z m154 -36 c18 -19 17 -20 -3 -20 -15 0 -22 6 -22 20
0 11 2 20 3 20 2 0 12 -9 22 -20z"/>
<path d="M182 169 c-61 -23 -39 -109 28 -109 15 0 35 -9 45 -20 14 -15 21 -17
32 -8 11 9 10 15 -7 33 -11 12 -20 33 -20 46 0 46 -37 73 -78 58z m52 -25 c21
-21 20 -37 -3 -58 -25 -23 -59 -13 -67 20 -12 46 37 72 70 38z"/>
</g>
</svg>
