<?xml version="1.0" standalone="no"?>
<!DOCTYPE svg PUBLIC "-//W3C//DTD SVG 20010904//EN"
 "http://www.w3.org/TR/2001/REC-SVG-20010904/DTD/svg10.dtd">
<svg version="1.0" xmlns="http://www.w3.org/2000/svg"
 width="28.423924pt" height="40.897744pt" viewBox="0 0 28.423924 40.897744"
 preserveAspectRatio="xMidYMid meet">
<metadata>
Created by potrace 1.12, written by Peter Selinger 2001-2015
</metadata>
<g transform="translate(-10.832050,45.897744) scale(0.100000,-0.100000)"
fill="#000000" stroke="none">
<path d="M183 444 c-85 -42 -99 -159 -34 -285 28 -54 79 -109 102 -109 20 0
84 68 94 100 5 17 1 29 -19 48 -21 21 -33 26 -69 23 -35 -2 -50 3 -75 24 -27
23 -32 34 -32 72 0 24 5 53 10 64 13 22 61 49 90 49 61 0 116 -67 104 -127 -4
-21 0 -33 15 -47 21 -19 21 -19 23 15 5 93 -15 140 -74 170 -45 23 -92 24
-135 3z"/>
<path d="M221 342 c-20 -38 31 -71 58 -38 9 11 10 20 1 35 -13 26 -46 27 -59
3z"/>
</g>
</svg>
