<?xml version="1.0" standalone="no"?>
<!DOCTYPE svg PUBLIC "-//W3C//DTD SVG 20010904//EN"
 "http://www.w3.org/TR/2001/REC-SVG-20010904/DTD/svg10.dtd">
<svg version="1.0" xmlns="http://www.w3.org/2000/svg"
 width="25.916779pt" height="28.056626pt" viewBox="0 0 25.916779 28.056626"
 preserveAspectRatio="xMidYMid meet">
<metadata>
Created by potrace 1.12, written by Peter Selinger 2001-2015
</metadata>
<g transform="translate(-5.000000,31.874667) scale(0.100000,-0.100000)"
fill="#000000" stroke="none">
<path d="M231 297 c-14 -36 -71 -68 -109 -61 -34 7 -72 -22 -72 -56 0 -34 38
-63 72 -56 37 7 95 -25 108 -60 14 -35 67 -34 76 1 8 32 -11 55 -45 55 -36 0
-91 35 -91 59 0 23 44 53 89 60 63 11 68 72 7 79 -20 3 -28 -2 -35 -21z"/>
</g>
</svg>
