<?xml version="1.0" standalone="no"?>
<!DOCTYPE svg PUBLIC "-//W3C//DTD SVG 20010904//EN"
 "http://www.w3.org/TR/2001/REC-SVG-20010904/DTD/svg10.dtd">
<svg version="1.0" xmlns="http://www.w3.org/2000/svg"
 width="32.000000pt" height="26.000000pt" viewBox="0 0 32.000000 26.000000"
 preserveAspectRatio="xMidYMid meet">
<metadata>
Created by potrace 1.12, written by Peter Selinger 2001-2015
</metadata>
<g transform="translate(-2.000000,31.000000) scale(0.100000,-0.100000)"
fill="#000000" stroke="none">
<path d="M20 180 l0 -130 160 0 160 0 0 130 0 130 -160 0 -160 0 0 -130z m308
24 l1 -54 -49 0 c-45 0 -50 2 -51 23 l-2 22 -4 -22 c-4 -22 -9 -23 -99 -23
l-94 0 1 55 2 55 147 -1 146 0 2 -55z m-26 -69 c21 5 28 3 28 -9 0 -12 -11
-16 -50 -16 -33 0 -50 4 -50 13 0 9 -2 9 -8 0 -4 -6 -23 -13 -42 -16 -19 -2 7
-5 58 -5 81 -2 92 -4 92 -20 0 -14 -9 -17 -47 -17 -27 0 -51 5 -55 10 -5 7 -8
6 -8 -1 0 -6 -34 -10 -92 -10 -82 1 -93 3 -96 19 -3 16 2 18 47 16 28 -2 54 0
57 4 4 4 -18 7 -49 7 -43 0 -57 4 -57 15 0 11 18 14 91 14 50 0 93 2 96 5 3 3
17 0 31 -5 14 -5 38 -7 54 -4z"/>
</g>
</svg>
