<?xml version="1.0" standalone="no"?>
<!DOCTYPE svg PUBLIC "-//W3C//DTD SVG 20010904//EN"
 "http://www.w3.org/TR/2001/REC-SVG-20010904/DTD/svg10.dtd">
<svg version="1.0" xmlns="http://www.w3.org/2000/svg"
 width="32.000000pt" height="28.917539pt" viewBox="0 0 32.000000 28.917539"
 preserveAspectRatio="xMidYMid meet">
<metadata>
Created by potrace 1.12, written by Peter Selinger 2001-2015
</metadata>
<g transform="translate(-2.000000,31.000000) scale(0.100000,-0.100000)"
fill="#000000" stroke="none">
<path d="M20 180 l0 -130 72 0 c39 0 68 3 64 7 -3 4 -32 7 -64 7 -47 1 -57 4
-60 19 -3 16 2 18 47 16 28 -2 54 0 57 4 4 4 -18 7 -49 7 -45 0 -57 3 -57 16
0 12 11 15 55 13 30 -1 58 1 62 4 3 4 -21 7 -55 7 l-62 0 1 55 2 55 149 -1
c149 0 150 0 145 -22 -3 -12 -1 -31 3 -42 6 -14 9 2 9 48 l1 67 -160 0 -160 0
0 -130z"/>
<path d="M195 165 c-37 -36 -34 -86 6 -119 33 -28 55 -32 92 -15 79 36 50 159
-38 159 -25 0 -44 -8 -60 -25z m43 -27 c10 -10 17 -10 33 0 27 17 34 10 18
-16 -10 -17 -10 -23 1 -36 17 -21 5 -33 -16 -16 -13 11 -19 11 -36 1 -27 -17
-36 -6 -14 18 15 16 15 19 1 31 -16 13 -20 30 -7 30 4 0 14 -6 20 -12z"/>
</g>
</svg>
