<?xml version="1.0" standalone="no"?>
<!DOCTYPE svg PUBLIC "-//W3C//DTD SVG 20010904//EN"
 "http://www.w3.org/TR/2001/REC-SVG-20010904/DTD/svg10.dtd">
<svg version="1.0" xmlns="http://www.w3.org/2000/svg"
 width="14.145370pt" height="18.903855pt" viewBox="0 0 14.145370 18.903855"
 preserveAspectRatio="xMidYMid meet">
<metadata>
Created by potrace 1.12, written by Peter Selinger 2001-2015
</metadata>
<g transform="translate(-3.015280,19.903855) scale(0.100000,-0.100000)"
fill="#000000" stroke="none">
<path d="M65 188 c-28 -16 -35 -28 -35 -64 0 -30 50 -114 68 -114 15 0 50 44
65 79 18 43 6 84 -29 100 -31 14 -43 14 -69 -1z m73 -30 c15 -15 15 -51 0 -66
-7 -7 -25 -12 -40 -12 -36 0 -56 36 -39 69 13 23 59 29 79 9z"/>
</g>
</svg>
