<?xml version="1.0" standalone="no"?>
<!DOCTYPE svg PUBLIC "-//W3C//DTD SVG 20010904//EN"
 "http://www.w3.org/TR/2001/REC-SVG-20010904/DTD/svg10.dtd">
<svg version="1.0" xmlns="http://www.w3.org/2000/svg"
 width="30.000000pt" height="29.971007pt" viewBox="0 0 30.000000 29.971007"
 preserveAspectRatio="xMidYMid meet">
<metadata>
Created by potrace 1.12, written by Peter Selinger 2001-2015
</metadata>
<g transform="translate(-1.000000,31.000000) scale(0.100000,-0.100000)"
fill="#000000" stroke="none">
<path d="M47 257 c-21 -30 -37 -56 -37 -60 0 -12 100 -58 111 -51 7 4 0 18
-17 35 l-28 29 32 39 31 38 -25 12 c-14 6 -26 11 -28 11 -1 0 -19 -24 -39 -53z
m63 24 c0 -4 -9 -20 -20 -34 -25 -31 -25 -45 -3 -70 18 -19 17 -19 -20 -1 -20
10 -37 21 -37 26 0 15 55 87 68 88 6 0 12 -4 12 -9z"/>
<path d="M131 263 c-23 -27 -41 -51 -41 -54 0 -4 10 -13 23 -22 20 -13 24 -12
40 9 16 22 16 24 2 24 -28 0 -10 24 23 31 33 7 42 -3 42 -47 0 -25 -9 -31 -26
-14 -7 7 -15 2 -24 -15 -12 -22 -11 -27 6 -40 10 -8 23 -13 27 -12 5 2 25 30
44 64 l34 62 -42 30 c-23 17 -48 31 -55 31 -7 0 -31 -21 -53 -47z"/>
<path d="M238 150 c-24 -42 -47 -50 -68 -25 -12 15 -40 21 -40 9 0 -10 84
-123 92 -124 11 0 88 114 88 131 0 15 -30 49 -43 49 -4 0 -17 -18 -29 -40z
m52 5 c11 -13 7 -25 -25 -70 -20 -30 -39 -55 -40 -55 -2 0 -18 19 -36 41 -26
33 -28 39 -12 30 29 -15 45 -7 67 34 21 39 28 42 46 20z"/>
</g>
</svg>
