<?xml version="1.0" standalone="no"?>
<!DOCTYPE svg PUBLIC "-//W3C//DTD SVG 20010904//EN"
 "http://www.w3.org/TR/2001/REC-SVG-20010904/DTD/svg10.dtd">
<svg version="1.0" xmlns="http://www.w3.org/2000/svg"
 width="17.352642pt" height="17.316820pt" viewBox="0 0 17.352642 17.316820"
 preserveAspectRatio="xMidYMid meet">
<metadata>
Created by potrace 1.12, written by Peter Selinger 2001-2015
</metadata>
<g transform="translate(-1.107339,18.893005) scale(0.100000,-0.100000)"
fill="#000000" stroke="none">
<path d="M35 165 c-32 -31 -32 -69 1 -101 20 -21 32 -25 62 -21 27 3 43 -1 58
-15 12 -11 25 -15 28 -10 3 5 -3 17 -13 26 -14 13 -17 26 -14 60 5 38 2 45
-22 64 -36 29 -70 28 -100 -3z m89 -27 c13 -19 14 -25 2 -43 -26 -40 -86 -27
-86 19 0 47 57 63 84 24z"/>
<path d="M68 113 c12 -2 30 -2 40 0 9 3 -1 5 -23 4 -22 0 -30 -2 -17 -4z"/>
</g>
</svg>
